<?xml version="1.0" standalone="no"?><!DOCTYPE svg PUBLIC "-//W3C//DTD SVG 1.1//EN" "http://www.w3.org/Graphics/SVG/1.1/DTD/svg11.dtd"><svg width="200" height="200" viewBox="0 0 200 200" version="1.1" xmlns="http://www.w3.org/2000/svg" xmlns:xlink="http://www.w3.org/1999/xlink"><defs><style type="text/css"><![CDATA[
@font-face { font-family: ifont; src: url("//at.alicdn.com/t/font_1442373896_4754455.eot?#iefix") format("embedded-opentype"), url("//at.alicdn.com/t/font_1442373896_4754455.woff") format("woff"), url("//at.alicdn.com/t/font_1442373896_4754455.ttf") format("truetype"), url("//at.alicdn.com/t/font_1442373896_4754455.svg#ifont") format("svg"); }

]]></style></defs><g class="transform-group"><g transform="scale(0.1953125, 0.1953125)"><path d="M735.658 234.152l0 117.515 23.7-42.03c9.715-17.262 24.54-29.42 41.315-36.347l0-72.167-65.015-65.015 0 0.52-65.02-65.017 0.52 0L606.143 6.595 85.495 6.595c-35.92 0-65.015 29.127-65.015 65.015l0 812.703c0 35.89 29.095 65.015 65.015 65.015 0 0 279.212 0.68 473.479 0.62l10.27-65.635L85.495 884.313 85.495 71.61l487.624 0 0 119.21c0 23.922 19.405 43.332 43.33 43.332L735.658 234.152zM696.028 536.344c-7.7 13.69-3.12 31.175 10.21 39.045 13.355 7.9 30.425 3.215 38.13-10.47l102.335-181.59c7.705-13.685 3.125-31.175-10.205-39.072-13.365-7.9-30.43-3.22-38.13 10.467L696.028 536.344zM632.413 839.873c-10.795 18.855-34.945 106.01-22.4 142.805l-11.15 19.475c-3.87 6.695-1.205 15.51 5.815 19.67 1.565 0.905 3.19 1.56 4.815 1.88 5.855 1.175 11.895-1.23 14.89-6.465l11.8-20.61c37.025-8.645 96.09-67.455 108.995-90.05l139.66-247.679-112.905-66.67L632.413 839.873zM976.797 361.292c-28.895-17.46-68.655-9.752-83.9 16.35L790.563 559.234l112.805 66.705 102.335-181.59C1020.427 418.212 1005.732 378.714 976.797 361.292zM410.414 624.249l0.325 0c17.845 0 32.345-14.465 32.345-32.345l0-97.687 97.525 0c17.945 0 32.51-14.562 32.51-32.51 0-17.945-14.565-32.507-32.51-32.507l-97.525 0 0-97.687c0-17.877-14.5-32.345-32.345-32.345l-0.325 0c-17.88 0-32.345 14.467-32.345 32.345l0 97.687-97.525 0c-17.945 0-32.507 14.562-32.507 32.507 0 17.947 14.562 32.51 32.507 32.51l97.525 0 0 97.687C378.069 609.784 392.534 624.249 410.414 624.249z" fill="#272636"></path></g></g></svg>